<mxfile host="app.diagrams.net" modified="2023-04-23T14:32:48.846Z" agent="Mozilla/5.0 (Windows NT 10.0; Win64; x64) AppleWebKit/537.36 (KHTML, like Gecko) Chrome/111.0.0.0 Safari/537.36" version="21.1.7" etag="E1sV9JvLilxdLWYB9XVw" type="github">
  <diagram name="StrÃ¡nka-1" id="tdt5xNuwXFFKqYyTTG9P">
    <mxGraphModel>
      <root>
        <mxCell id="0" />
        <mxCell id="1" parent="0" />
      </root>
    </mxGraphModel>
  </diagram>
</mxfile>
